<svg xmlns="http://www.w3.org/2000/svg" xmlns:xlink="http://www.w3.org/1999/xlink" viewBox="0 0 206.94 181.67"><defs><style>.cls-1{fill:url(#New_Gradient_Swatch);}.cls-2{fill:url(#New_Gradient_Swatch-2);}.cls-3{fill:#fff;opacity:0.3;}</style><linearGradient id="New_Gradient_Swatch" x1="103.47" y1="-105.75" x2="103.47" y2="56.92" gradientUnits="userSpaceOnUse"><stop offset="0" stop-color="#14b0b6"/><stop offset="0.82" stop-color="#86cdd3"/></linearGradient><linearGradient id="New_Gradient_Swatch-2" x1="104.24" y1="65.67" x2="104.24" y2="184.38" xlink:href="#New_Gradient_Swatch"/></defs><title>Asset 1frame</title><g id="Layer_2" data-name="Layer 2"><g id="Object"><path class="cls-1" d="M40.35,61a3.5,3.5,0,0,1,6.3.15l11.81,26H89.71a3.47,3.47,0,0,1,2.91,1.56l3,4.54,2.86-4.49a3.53,3.53,0,0,1,2.95-1.61h6l13.73-38.72a3.5,3.5,0,0,1,6.73.48l11.25,56.23,12.38-46.48a3.49,3.49,0,0,1,6.71-.16L169.91,95,177,83.69a3.52,3.52,0,0,1,3-1.64h26a80.29,80.29,0,0,0-8.43-49.93C187,12.49,169.39.18,151.56,0h-.42c-12.74,0-30.92,5.9-47.67,32.69C86.53,5.6,68.13-.11,55.38,0c-17.83.18-35.44,12.49-46,32.12C1.77,46.36-2.87,66.51,2,87.14H26.9Z"/><path class="cls-2" d="M171.83,105.07a3.5,3.5,0,0,1-6.3-.8L155.26,72l-13.17,49.43a3.5,3.5,0,0,1-3.38,2.6h-.11a3.5,3.5,0,0,1-3.32-2.81l-11.7-58.52L113.26,91.81a3.5,3.5,0,0,1-3.3,2.33h-6.58l-4.72,7.39a3.49,3.49,0,0,1-2.91,1.61,3.45,3.45,0,0,1-3-1.56l-5-7.44H56.21a3.51,3.51,0,0,1-3.19-2l-9.75-21.5L32.16,92.24A3.53,3.53,0,0,1,29,94.14H4a75.44,75.44,0,0,0,8.13,16.65c16.76,25.83,46.13,48.77,89.78,70.13l1.54.75,1.54-.75c43.65-21.36,73-44.3,89.78-70.13a74.59,74.59,0,0,0,9.68-21.74H181.89Z"/><path class="cls-3" d="M101.93,180.92l1.54.75.61-.29q-2-1.12-4-2.35c-12.77-8.1-23.18-19.39-32.94-30.95-10.7-12.68-20.89-26-28.33-40.78-1.15-2.27-2.23-4.6-3.25-7-1.18-2.77-2.26-5.6-3.23-8.47l-.19.38A3.53,3.53,0,0,1,29,94.14H4a75.44,75.44,0,0,0,8.13,16.65C28.91,136.62,58.28,159.56,101.93,180.92Z"/><path class="cls-3" d="M2,87.14H26.9L29.56,82A74.24,74.24,0,0,1,28,57.66C30.41,35.33,44.64,14.23,62.53,1.1l.62-.43A40.4,40.4,0,0,0,55.88,0C37.84.23,20.05,12.63,9.45,32.39A81.31,81.31,0,0,0,.11,66.17v.14c0,.76-.06,1.53-.08,2.3A75.15,75.15,0,0,0,2,87.14Z"/></g></g></svg>